<?xml version="1.0" standalone="no"?>
<!DOCTYPE svg PUBLIC "-//W3C//DTD SVG 20010904//EN"
 "http://www.w3.org/TR/2001/REC-SVG-20010904/DTD/svg10.dtd">
<svg version="1.0" xmlns="http://www.w3.org/2000/svg"
 width="403.000000pt" height="308.000000pt" viewBox="0 0 403.000000 308.000000"
 preserveAspectRatio="xMidYMid meet">

<g transform="translate(0.000000,308.000000) scale(0.100000,-0.100000)"
fill="#000000" stroke="none">
<path d="M1823 2656 c-188 -46 -352 -209 -394 -393 -29 -129 0 -330 76 -518
74 -184 225 -440 393 -668 l50 -69 95 134 c228 322 369 614 421 870 29 139 18
236 -39 356 -105 222 -364 345 -602 288z m290 -128 c79 -37 160 -116 200 -197
30 -62 32 -72 32 -176 0 -100 -2 -115 -28 -167 -76 -156 -238 -250 -402 -235
-336 32 -491 418 -270 675 41 47 104 88 180 115 76 27 211 20 288 -15z"/>
<path d="M1847 2473 c-4 -3 -7 -48 -7 -100 0 -87 -1 -93 -20 -93 -11 0 -23 -7
-27 -16 -3 -9 -1 -93 6 -185 11 -148 11 -171 -2 -184 -9 -8 -20 -15 -26 -15
-6 0 -11 -13 -11 -29 0 -27 6 -32 57 -51 31 -12 85 -24 120 -27 l63 -6 0 53
c0 40 -5 57 -20 70 -20 18 -20 18 17 46 21 16 47 34 58 40 13 7 21 24 23 46 2
26 9 38 28 46 25 12 33 47 13 54 -8 3 -8 10 2 26 10 16 11 24 2 33 -9 9 -9 16
0 29 8 14 8 22 -1 32 -8 11 -9 17 0 26 15 15 2 42 -22 42 -18 0 -20 6 -20 73
0 43 -5 78 -12 85 -13 13 -209 18 -221 5z m131 -40 c-10 -2 -26 -2 -35 0 -10
3 -2 5 17 5 19 0 27 -2 18 -5z m92 -65 c0 -34 -6 -58 -17 -70 -14 -15 -15 -23
-6 -37 9 -14 9 -21 0 -30 -9 -9 -9 -16 1 -31 7 -12 8 -21 2 -25 -14 -9 -12
-45 2 -45 9 0 9 -3 0 -12 -17 -17 -15 -45 3 -52 31 -12 13 -26 -34 -26 -40 0
-49 -3 -47 -17 0 -10 -7 -19 -16 -21 -13 -2 -18 3 -18 17 0 13 -7 21 -17 21
-10 0 -28 15 -39 33 -19 29 -23 54 -29 190 l-7 157 111 0 111 0 0 -52z"/>
<path d="M3630 940 c-6 -11 -7 -20 -2 -20 10 0 32 21 32 32 0 16 -19 8 -30
-12z"/>
<path d="M260 810 c0 -93 1 -100 20 -100 14 0 20 7 20 24 0 43 10 56 45 56 41
0 65 22 65 59 0 43 -28 61 -93 61 l-57 0 0 -100z m108 38 c-3 -7 -17 -13 -33
-13 -16 0 -30 6 -32 13 -3 8 7 12 32 12 25 0 35 -4 33 -12z"/>
<path d="M430 810 c0 -93 1 -100 20 -100 17 0 20 7 20 41 0 38 1 40 28 37 23
-3 27 -8 30 -40 3 -33 7 -38 28 -38 24 0 24 1 21 86 -4 103 -13 114 -94 114
l-53 0 0 -100z m100 35 c0 -10 -10 -15 -30 -15 -20 0 -30 5 -30 15 0 10 10 15
30 15 20 0 30 -5 30 -15z"/>
<path d="M610 890 c-16 -16 -20 -33 -20 -80 0 -82 18 -100 101 -100 57 0 60 1
57 23 -3 19 -10 22 -55 25 -38 2 -53 7 -53 18 0 10 14 14 55 14 48 0 55 2 55
20 0 18 -7 20 -55 20 -42 0 -55 3 -55 15 0 12 13 15 55 15 52 0 55 1 55 25 0
24 -3 25 -60 25 -47 0 -64 -4 -80 -20z"/>
<path d="M782 894 c-20 -14 -22 -24 -22 -100 0 -77 2 -84 20 -84 17 0 19 8 22
73 l3 72 30 0 30 0 3 -72 c3 -65 5 -73 22 -73 18 0 20 7 20 84 0 76 -2 86 -22
100 -12 9 -36 16 -53 16 -17 0 -41 -7 -53 -16z"/>
<path d="M941 884 c-33 -42 -26 -141 13 -166 6 -4 37 -8 69 -8 54 0 57 1 57
25 0 24 -3 25 -55 25 -42 0 -55 3 -55 15 0 12 13 15 55 15 48 0 55 2 55 20 0
18 -7 20 -55 20 -42 0 -55 3 -55 15 0 12 13 15 55 15 52 0 55 1 55 25 0 24 -3
25 -59 25 -52 0 -62 -3 -80 -26z"/>
<path d="M1090 885 c0 -22 4 -25 35 -25 19 0 35 -3 35 -6 0 -3 -16 -26 -35
-51 -19 -25 -35 -56 -35 -69 0 -23 4 -24 60 -24 57 0 60 1 60 25 0 22 -4 25
-36 25 l-36 0 36 49 c20 27 36 60 36 75 0 25 -2 26 -60 26 -57 0 -60 -1 -60
-25z"/>
<path d="M1281 824 c4 -96 16 -114 76 -114 29 0 33 3 33 25 0 21 -5 25 -30 25
l-30 0 0 75 c0 74 0 75 -26 75 l-26 0 3 -86z"/>
<path d="M1455 898 c-3 -7 -16 -52 -29 -100 l-23 -88 23 0 c18 0 24 9 35 50 7
27 16 47 20 45 3 -3 12 -25 18 -50 9 -34 16 -45 31 -45 25 0 25 6 -4 110 -19
70 -27 86 -45 88 -11 2 -23 -3 -26 -10z"/>
<path d="M1630 810 c0 -93 1 -100 20 -100 17 0 20 7 20 40 0 35 3 40 23 40 31
0 47 -18 47 -52 0 -21 5 -28 20 -28 18 0 19 7 18 81 -1 103 -13 119 -93 119
l-55 0 0 -100z m100 35 c0 -10 -10 -15 -30 -15 -20 0 -30 5 -30 15 0 10 10 15
30 15 20 0 30 -5 30 -15z"/>
<path d="M1816 894 c-22 -21 -29 -57 -23 -111 6 -55 25 -73 77 -73 52 0 71 18
77 73 10 87 -14 127 -77 127 -22 0 -45 -7 -54 -16z m84 -84 c0 -49 -1 -50 -30
-50 -29 0 -30 1 -30 50 0 49 1 50 30 50 29 0 30 -1 30 -50z"/>
<path d="M1960 827 c0 -99 12 -117 77 -117 61 0 73 20 73 118 0 75 -2 82 -20
82 -18 0 -20 -7 -20 -75 l0 -75 -29 0 c-36 0 -44 19 -40 93 3 47 1 52 -19 55
-21 3 -22 0 -22 -81z"/>
<path d="M2130 885 c0 -18 5 -25 20 -25 18 0 20 -7 20 -75 0 -73 1 -75 25 -75
24 0 25 2 25 75 0 68 2 75 20 75 15 0 20 7 20 25 0 24 -2 25 -65 25 -63 0 -65
-1 -65 -25z"/>
<path d="M2297 892 c-12 -13 -17 -37 -17 -84 0 -83 14 -98 93 -98 54 0 57 1
57 25 0 24 -3 25 -55 25 -42 0 -55 3 -55 15 0 12 13 15 55 15 48 0 55 2 55 20
0 18 -7 20 -55 20 -42 0 -55 3 -55 15 0 12 13 15 55 15 52 0 55 1 55 25 0 24
-3 25 -58 25 -44 0 -63 -5 -75 -18z"/>
<path d="M2500 810 l0 -100 58 0 c79 0 92 15 92 102 0 83 -14 98 -93 98 l-57
0 0 -100z m110 0 c0 -49 -1 -50 -30 -50 -29 0 -30 1 -30 50 0 49 1 50 30 50
29 0 30 -1 30 -50z"/>
<path d="M2670 827 c0 -99 12 -117 78 -117 58 0 72 23 72 123 0 75 -1 78 -22
75 -20 -3 -22 -8 -19 -55 4 -74 -4 -93 -40 -93 l-29 0 0 75 c0 68 -2 75 -20
75 -18 0 -20 -7 -20 -83z"/>
<path d="M2910 890 c-42 -42 -15 -96 49 -102 19 -2 36 -9 39 -15 3 -9 -12 -13
-52 -13 -53 0 -56 -1 -56 -25 0 -24 3 -25 58 -25 44 0 63 5 75 18 39 42 8 102
-51 102 -22 0 -32 5 -32 15 0 10 11 15 35 15 31 0 35 3 35 25 0 23 -4 25 -40
25 -27 0 -47 -7 -60 -20z"/>
<path d="M3060 827 c0 -99 12 -117 78 -117 58 0 72 23 72 123 0 76 -1 78 -22
75 -21 -3 -23 -9 -26 -75 l-3 -73 -29 0 -30 0 0 75 c0 68 -2 75 -20 75 -18 0
-20 -7 -20 -83z"/>
<path d="M3240 890 c-16 -16 -20 -33 -20 -80 0 -47 4 -64 20 -80 36 -36 130
-21 130 21 0 18 -4 19 -50 13 l-50 -7 0 53 0 52 56 -7 56 -7 -13 24 c-17 32
-28 38 -71 38 -25 0 -45 -7 -58 -20z"/>
<path d="M3412 894 c-19 -13 -22 -24 -22 -83 0 -53 4 -72 18 -84 26 -23 94
-22 115 1 31 34 21 43 -39 36 l-55 -7 3 49 3 49 53 -2 c37 -2 52 1 52 11 0 41
-84 61 -128 30z"/>
<path d="M3576 891 c-20 -22 -32 -87 -22 -125 11 -43 32 -56 97 -56 56 0 59 1
59 25 0 24 -3 25 -55 25 -42 0 -55 3 -55 15 0 12 13 15 55 15 48 0 55 2 55 20
0 18 -7 20 -55 20 -42 0 -55 3 -55 15 0 12 13 15 55 15 52 0 55 1 55 25 0 24
-3 25 -58 25 -45 0 -63 -4 -76 -19z"/>
<path d="M3740 890 c-42 -42 -15 -96 49 -102 19 -2 36 -9 39 -15 3 -9 -12 -13
-52 -13 -53 0 -56 -1 -56 -25 0 -24 3 -25 58 -25 66 0 92 18 92 63 0 35 -25
57 -66 57 -24 0 -34 5 -34 15 0 10 11 15 35 15 31 0 35 3 35 25 0 23 -4 25
-40 25 -27 0 -47 -7 -60 -20z"/>
<path d="M640 521 c-25 -47 0 -91 51 -91 41 0 38 28 -3 33 l-33 4 33 1 c43 3
45 32 2 32 -16 0 -30 5 -30 10 0 6 20 10 45 10 l45 0 0 -45 c0 -25 5 -45 10
-45 6 0 10 20 10 45 0 33 4 45 15 45 8 0 15 5 15 10 0 6 -32 10 -75 10 -63 0
-76 -3 -85 -19z"/>
<path d="M847 533 c-4 -3 -7 -26 -7 -49 0 -38 3 -44 25 -50 15 -4 32 -1 40 6
20 16 20 60 0 60 -8 0 -15 -9 -15 -20 0 -11 -7 -20 -15 -20 -10 0 -15 10 -15
31 0 29 2 30 30 24 25 -5 29 -4 24 9 -6 16 -54 22 -67 9z"/>
<path d="M950 533 c0 -5 -7 -29 -15 -55 -12 -40 -12 -48 0 -48 7 0 17 15 21
33 l7 32 10 -32 c9 -31 27 -46 27 -22 0 32 -24 99 -36 99 -8 0 -14 -3 -14 -7z"/>
<path d="M1017 534 c-4 -4 -7 -27 -7 -50 0 -38 3 -44 25 -50 15 -4 32 -1 40 6
21 17 20 60 -1 60 -11 0 -15 -6 -11 -20 4 -15 0 -20 -14 -20 -15 0 -19 7 -19
31 0 29 2 30 31 24 24 -5 30 -4 27 6 -5 15 -59 25 -71 13z"/>
<path d="M1107 533 c-11 -10 -8 -103 3 -103 6 0 10 20 10 45 0 33 4 45 15 45
11 0 15 -12 15 -45 0 -33 4 -45 15 -45 8 0 15 7 15 16 0 14 1 14 16 0 22 -22
144 -23 144 -1 0 8 -9 15 -21 15 l-20 0 20 29 c33 46 28 51 -49 51 -55 0 -71
-3 -79 -17 -9 -17 -10 -17 -16 0 -7 17 -54 24 -68 10z m203 -20 c-1 -5 -9 -18
-19 -30 -14 -16 -29 -23 -53 -21 l-33 1 33 4 c42 6 44 33 2 33 -16 0 -30 5
-30 10 0 6 23 10 50 10 28 0 50 -3 50 -7z"/>
<path d="M1380 491 c0 -35 4 -51 16 -55 25 -10 34 -7 34 9 0 8 -7 15 -15 15
-11 0 -15 11 -15 40 0 22 -4 40 -10 40 -5 0 -10 -22 -10 -49z"/>
<path d="M1440 530 c0 -5 5 -10 11 -10 5 0 7 5 4 10 -3 6 -8 10 -11 10 -2 0
-4 -4 -4 -10z"/>
<path d="M1491 518 c-4 -13 -12 -38 -16 -55 -8 -41 9 -44 23 -5 l10 27 11 -27
c6 -16 15 -28 21 -28 10 0 9 10 -10 79 -8 33 -28 38 -39 9z"/>
<path d="M1560 485 c0 -30 5 -55 10 -55 6 0 10 9 10 20 0 11 7 20 15 20 8 0
15 -9 15 -20 0 -11 7 -20 15 -20 8 0 15 7 15 16 0 14 1 14 16 0 8 -9 22 -16
29 -16 7 0 21 7 29 16 15 14 17 14 32 0 9 -10 33 -16 60 -16 l44 0 0 45 c0 33
4 45 15 45 11 0 15 -12 15 -45 0 -25 5 -45 11 -45 6 0 9 21 7 53 -3 50 -4 52
-35 55 -24 2 -33 -1 -38 -17 -4 -15 -15 -21 -36 -21 -16 0 -29 5 -29 10 0 6
14 10 30 10 17 0 30 5 30 10 0 14 -64 12 -78 -2 -9 -9 -15 -9 -24 0 -16 16
-50 15 -67 0 -11 -10 -14 -10 -18 0 -3 6 -20 12 -39 12 l-34 0 0 -55z m50 25
c0 -5 -7 -10 -15 -10 -8 0 -15 5 -15 10 0 6 7 10 15 10 8 0 15 -4 15 -10z
m105 0 c17 -7 17 -9 3 -9 -11 -1 -18 -9 -18 -21 0 -11 -7 -20 -15 -20 -10 0
-15 10 -15 30 0 31 9 35 45 20z m93 -47 c-10 -2 -26 -2 -35 0 -10 3 -2 5 17 5
19 0 27 -2 18 -5z"/>
<path d="M1910 530 c0 -5 7 -10 15 -10 11 0 15 -12 15 -45 0 -25 5 -45 10 -45
6 0 10 20 10 45 0 34 4 45 16 45 8 0 12 5 9 10 -3 6 -22 10 -41 10 -19 0 -34
-4 -34 -10z"/>
<path d="M2040 498 c-6 -24 -13 -49 -15 -55 -2 -7 2 -13 9 -13 7 0 17 15 21
33 l7 32 9 -32 c9 -30 29 -46 29 -23 0 29 -26 100 -37 100 -7 0 -17 -19 -23
-42z"/>
<path d="M2108 485 c8 -30 20 -55 27 -55 9 0 35 72 35 100 0 23 -20 7 -28 -22
l-9 -33 -7 33 c-4 17 -13 32 -20 32 -11 0 -10 -11 2 -55z"/>
<path d="M2187 533 c-4 -3 -7 -25 -7 -49 0 -44 10 -54 56 -54 38 0 31 30 -8
31 -32 2 -32 2 -4 6 19 3 34 -2 47 -16 22 -24 32 -25 60 -10 26 14 14 31 -17
23 -22 -6 -24 -3 -24 26 0 30 1 31 32 24 29 -6 31 -5 19 10 -19 22 -58 20 -71
-4 -11 -21 -70 -29 -70 -10 0 6 14 10 30 10 17 0 30 5 30 10 0 11 -63 14 -73
3z"/>
<path d="M2390 529 c0 -31 24 -99 35 -99 11 0 35 68 35 99 0 24 -18 9 -27 -21
l-10 -33 -7 33 c-7 30 -26 46 -26 21z"/>
<path d="M2477 533 c-4 -3 -7 -26 -7 -49 0 -38 3 -44 25 -50 15 -4 32 -1 40 6
15 13 20 56 9 84 -6 16 -54 22 -67 9z m43 -43 c0 -20 -5 -30 -15 -30 -10 0
-15 10 -15 30 0 20 5 30 15 30 10 0 15 -10 15 -30z"/>
<path d="M2550 530 c0 -5 7 -10 15 -10 11 0 15 -12 15 -45 0 -25 5 -45 10 -45
6 0 10 20 10 45 0 33 4 45 15 45 11 0 15 -12 15 -45 0 -33 4 -45 15 -45 8 0
15 9 15 20 0 11 7 20 15 20 8 0 15 -9 15 -20 0 -11 7 -20 15 -20 8 0 15 5 15
12 0 9 3 9 12 0 7 -7 25 -12 40 -12 37 0 37 27 1 33 l-28 4 28 2 c35 1 38 31
2 31 -14 0 -25 5 -25 10 0 6 14 10 31 10 17 0 28 4 24 10 -9 14 -72 12 -78 -2
-4 -10 -7 -10 -18 0 -16 15 -159 17 -159 2z m140 -20 c0 -5 -7 -10 -15 -10 -8
0 -15 5 -15 10 0 6 7 10 15 10 8 0 15 -4 15 -10z m27 -32 c-3 -8 -6 -5 -6 6
-1 11 2 17 5 13 3 -3 4 -12 1 -19z"/>
<path d="M2855 493 c8 -27 15 -51 15 -55 0 -5 6 -8 14 -8 7 0 16 13 19 29 3
16 9 40 13 55 4 16 2 26 -5 26 -6 0 -13 -11 -17 -25 -7 -28 -24 -24 -24 6 0
10 -7 19 -15 19 -12 0 -12 -6 0 -47z"/>
<path d="M2937 534 c-13 -13 -7 -81 8 -94 9 -7 25 -10 40 -6 24 6 26 10 23 54
-3 44 -5 47 -33 50 -17 2 -34 0 -38 -4z m53 -44 c0 -23 -4 -30 -20 -30 -14 0
-20 7 -20 23 0 27 7 37 27 37 8 0 13 -12 13 -30z"/>
<path d="M3020 485 c0 -30 5 -55 10 -55 6 0 10 25 10 55 0 30 -4 55 -10 55 -5
0 -10 -25 -10 -55z"/>
<path d="M3050 530 c0 -5 5 -10 10 -10 6 0 10 -20 10 -45 0 -33 4 -45 15 -45
11 0 15 12 15 45 0 25 5 45 10 45 6 0 10 5 10 10 0 6 -16 10 -35 10 -19 0 -35
-4 -35 -10z"/>
<path d="M3130 496 c0 -51 18 -71 55 -62 23 6 25 11 25 56 0 28 -4 50 -10 50
-5 0 -10 -18 -10 -40 0 -33 -3 -40 -20 -40 -17 0 -20 7 -20 40 0 22 -4 40 -10
40 -5 0 -10 -20 -10 -44z"/>
<path d="M3220 486 c0 -31 5 -56 10 -56 6 0 10 9 10 20 0 13 7 20 20 20 13 0
20 -7 20 -20 0 -11 5 -20 11 -20 6 0 9 21 7 53 l-3 52 -37 3 -38 3 0 -55z m55
24 c3 -5 -3 -10 -14 -10 -12 0 -21 5 -21 10 0 6 6 10 14 10 8 0 18 -4 21 -10z"/>
<path d="M3317 533 c-12 -11 -8 -78 5 -91 7 -7 25 -12 40 -12 40 0 37 28 -4
33 l-33 4 33 1 c43 3 45 32 2 32 -16 0 -30 5 -30 10 0 6 14 10 30 10 17 0 30
5 30 10 0 11 -63 14 -73 3z"/>
</g>
</svg>
